<svg xmlns="http://www.w3.org/2000/svg" width="256" height="256" viewBox="0 0 100 100"><rect width="100" height="100" rx="20" fill="#7d6ee7"></rect><path d="M28.76 71.33L11.59 71.33L11.59 66.52L16.19 65.64L16.19 34.38L11.59 33.51L11.59 28.67L31.57 28.67Q36.41 28.67 39.88 30.17Q43.35 31.66 45.18 34.47Q47.01 37.29 47.01 41.21L47.01 41.21Q47.01 44.96 45.20 47.83Q43.38 50.70 40.11 52.33Q36.85 53.96 32.54 53.98L32.54 53.98L24.16 54.01L24.16 65.64L28.76 66.52L28.76 71.33ZM48.89 71.33L39.19 71.33L31.51 52.29L38.84 50.79L45.40 65.70L48.89 66.46L48.89 71.33ZM24.16 34.82L24.16 47.86L31.31 47.86Q35.26 47.86 37.17 46.24Q39.07 44.61 39.07 41.50L39.07 41.50Q39.07 38.46 37.20 36.64Q35.32 34.82 31.57 34.82L31.57 34.82L24.16 34.82ZM78.24 71.33L61.04 71.33L61.04 66.52L65.64 65.64L65.64 34.79L57.47 34.79L56.91 40.07L50.91 40.07L50.91 28.67L88.41 28.67L88.41 40.07L82.37 40.07L81.82 34.79L73.61 34.79L73.61 65.64L78.24 66.52L78.24 71.33Z" fill="#fff"></path></svg>